<svg id="Layer_1" data-name="Layer 1" xmlns="http://www.w3.org/2000/svg" viewBox="0 0 1838.85 568.68"><defs><style>.cls-1{fill:#1a5fa8;stroke:#1a5fa8;}.cls-1,.cls-2{stroke-miterlimit:10;stroke-width:10px;}.cls-2,.cls-4{fill:#f5a623;}.cls-2{stroke:#f5a623;}.cls-3{fill:#6d3f29;}</style></defs><path class="cls-1" d="M141.94,346c9.64,39.6,38.83,64.75,79.7,68.64,45.15,4.3,88.28-28.82,91.95-70.63,4-45-31.4-83.5-78.27-86.18-33.16-1.89-58.53,10.41-79,35l-41.5-65.31c-9.12,14.05-17.33,26.68-25.53,39.32l-2-.28V256.45q0-69.06,0-138.11c0-13.16,2.78-15.59,17.29-15.68,6.29,0,12.57,0,18.85,0,16.87,0,19.21,2.06,19.23,17.23.05,33.09,0,66.18,0,99.26,0,3.44.31,6.88.55,12,36.87-20.84,74.87-31.2,116.6-21.51,30.34,7,56.84,20.59,77.36,42.74,38.2,41.22,43.57,103.78,13.12,150.32-31.54,48.21-94,72.62-154,60.2C137.53,450.66,94.19,404.92,88.58,347,107.17,346.11,124.56,346.07,141.94,346Z"/><path class="cls-2" d="M394.94,354V235.9h54.6V350.8c0,29.81,23.81,50.49,57.07,50.49,34.24,0,58.56-20.67,58.56-50.49V235.9h54.1V437.06l-49.52,0-1.1-22.7h-2.49c-7.94,8.75-33.25,27.44-70.47,27.44C436.62,441.84,394.94,407.25,394.94,354Z"/><path class="cls-1" d="M652.7,441.83V240.66l49-.58,1.64,22.84h2.49c7.94-8.74,33.25-27,70.47-27,59.05,0,100.76,34.58,100.76,87.86V441.83h-54.1V326.93c0-29.81-24.32-50.49-57.57-50.49-34.25,0-58.06,20.68-58.06,50.49v114.9Z"/><path class="cls-1" d="M908,441.83V240.66h49l1.62,22.26h2.49c7.94-8.74,33.25-27,70.47-27,59.05,0,100.76,34.58,100.76,87.86V441.83h-54.1V326.93c0-29.81-24.32-50.49-57.57-50.49-34.25,0-58.06,20.68-58.06,50.49v114.9Z"/><path class="cls-1" d="M1164,336.49c0-61.22,53.6-105.36,115.64-105.36,38.21,0,65.52,18.69,71,25.84h2.49V158.78h54.6V437.06h-49L1357,414.39h-2.48c-7,7.56-34.74,27.44-74.94,27.44C1217.56,441.84,1164,397.71,1164,336.49Zm189.1,0c0-38.56-31.27-64.8-67.5-64.8s-67.5,26.24-67.5,64.8,31.27,64.8,67.5,64.8S1353.05,375.05,1353.05,336.49Z"/><path class="cls-1" d="M1446.06,441.83V163.55h54.6V441.83Z"/><path class="cls-1" d="M1777.43,353.56H1591.31c7,30.61,33.74,48.9,69.48,48.9,28.28,0,45.16-10.74,54.1-21.06h56.58c-13.89,29-55.09,60.43-110.18,60.43-69.48,0-124.56-45.72-124.56-105.34,0-58.84,56.58-105.36,124.08-105.36,67,0,119.61,43.73,119.61,101A70.4,70.4,0,0,1,1777.43,353.56Zm-186.12-33h136c-6-29.81-32.75-50.09-66.51-50.09C1626.54,270.48,1598.26,290,1591.31,320.56Z"/><path class="cls-3" d="M82.42,338.37c20.28-.85,41.11,0,62.66,0,.83,2.18,0,5.26-.84,8-19.76.72-38.64.85-59.15.8C83.59,345.11,82.78,341.09,82.42,338.37Z"/><path class="cls-4" d="M86.72,338.58H58.42c19.2-30.53,37-58.88,56.16-89.33l56.35,89.19c-9.78,0-17.39,0-27.16-.09C123.3,338.37,105,338.47,86.72,338.58Z"/></svg>